<svg width="283" height="211" viewBox="0 0 283 211" fill="none" xmlns="http://www.w3.org/2000/svg">
<path d="M282.988 185.301H0V185.442H282.988V185.301Z" fill="#EBEBEB"/>
<path d="M48.4362 190.688H29.691V190.83H48.4362V190.688Z" fill="#EBEBEB"/>
<path d="M123.383 189.155H96.8611V189.296H123.383V189.155Z" fill="#EBEBEB"/>
<path d="M86.0736 195.947H67.5378V196.088H86.0736V195.947Z" fill="#EBEBEB"/>
<path d="M254.633 194.996H250.167V195.137H254.633V194.996Z" fill="#EBEBEB"/>
<path d="M245.13 194.996H221.562V195.137H245.13V194.996Z" fill="#EBEBEB"/>
<path d="M181.299 192.607H156.894V192.749H181.299V192.607Z" fill="#EBEBEB"/>
<path d="M134.136 160.058H24.852C23.9959 160.056 23.1754 159.715 22.5705 159.109C21.9657 158.504 21.626 157.682 21.626 156.826V3.20342C21.6334 2.35221 21.9764 1.53831 22.5805 0.938511C23.1845 0.338713 24.0008 0.00145817 24.852 0H134.136C134.993 0 135.815 0.340484 136.421 0.94655C137.028 1.55261 137.368 2.37462 137.368 3.23172V156.826C137.368 157.683 137.028 158.505 136.421 159.111C135.815 159.717 134.993 160.058 134.136 160.058ZM24.852 0.113196C24.0334 0.114695 23.2489 0.440932 22.6706 1.0203C22.0923 1.59967 21.7675 2.38482 21.7675 3.20342V156.826C21.7675 157.645 22.0923 158.43 22.6706 159.009C23.2489 159.589 24.0334 159.915 24.852 159.916H134.136C134.955 159.915 135.741 159.589 136.32 159.01C136.899 158.43 137.225 157.645 137.227 156.826V3.20342C137.225 2.3843 136.899 1.59916 136.32 1.01995C135.741 0.440748 134.955 0.114692 134.136 0.113196H24.852Z" fill="#EBEBEB"/>
<path d="M256.563 160.058H147.273C146.416 160.056 145.595 159.715 144.989 159.11C144.383 158.504 144.042 157.683 144.041 156.826V3.20342C144.05 2.35169 144.394 1.5378 144.999 0.938157C145.604 0.338515 146.421 0.00144227 147.273 0H256.563C257.413 0.00294562 258.228 0.340858 258.83 0.940498C259.433 1.54014 259.776 2.35319 259.783 3.20342V156.826C259.783 157.681 259.444 158.502 258.84 159.107C258.237 159.713 257.418 160.055 256.563 160.058ZM147.273 0.113196C146.453 0.114692 145.668 0.440748 145.089 1.01995C144.51 1.59916 144.184 2.3843 144.182 3.20342V156.826C144.184 157.645 144.51 158.43 145.089 159.01C145.668 159.589 146.453 159.915 147.273 159.916H256.563C257.382 159.915 258.167 159.589 258.746 159.01C259.325 158.43 259.651 157.645 259.653 156.826V3.20342C259.651 2.3843 259.325 1.59916 258.746 1.01995C258.167 0.440748 257.382 0.114692 256.563 0.113196H147.273Z" fill="#EBEBEB"/>
<path d="M217.046 55.8052L247.643 55.8052V20.6015L217.046 20.6015V55.8052Z" fill="#EBEBEB"/>
<path d="M220.38 22.8483C220.412 22.8469 220.443 22.8371 220.47 22.82C220.555 22.7691 229.107 17.681 231.829 17.681C234.552 17.681 242.707 22.7748 242.792 22.82C242.812 22.8325 242.834 22.8409 242.857 22.8447C242.88 22.8486 242.903 22.8479 242.926 22.8426C242.948 22.8374 242.97 22.8277 242.989 22.8141C243.008 22.8005 243.023 22.7833 243.036 22.7634C243.059 22.7234 243.067 22.6757 243.056 22.6304C243.045 22.5851 243.018 22.5456 242.979 22.5201C242.639 22.305 234.648 17.3301 231.829 17.3301C229.011 17.3301 220.64 22.305 220.289 22.5201C220.269 22.5318 220.251 22.5474 220.237 22.566C220.223 22.5847 220.212 22.606 220.207 22.6286C220.201 22.6513 220.2 22.6749 220.203 22.6981C220.207 22.7212 220.215 22.7435 220.227 22.7634C220.243 22.789 220.266 22.8101 220.293 22.8249C220.319 22.8397 220.349 22.8477 220.38 22.8483Z" fill="#EBEBEB"/>
<path d="M213.577 55.8052L246.692 55.8052V20.6015L213.577 20.6015V55.8052Z" fill="#F5F5F5"/>
<path d="M243.919 53.0318V23.3804H216.356V53.0318H243.919Z" fill="white"/>
<path d="M228.524 43.1952C228.524 42.5235 228.325 41.867 227.952 41.3085C227.579 40.7501 227.048 40.3148 226.428 40.0578C225.807 39.8008 225.124 39.7335 224.466 39.8646C223.807 39.9956 223.202 40.319 222.727 40.7939C222.252 41.2689 221.929 41.8739 221.798 42.5327C221.667 43.1914 221.734 43.8742 221.991 44.4947C222.248 45.1152 222.683 45.6456 223.242 46.0187C223.8 46.3919 224.457 46.591 225.128 46.591C226.029 46.591 226.893 46.2332 227.529 45.5964C228.166 44.9596 228.524 44.0958 228.524 43.1952Z" fill="#F5F5F5"/>
<path d="M238.497 33.2171C238.497 32.5455 238.297 31.889 237.924 31.3305C237.551 30.7721 237.021 30.3368 236.4 30.0798C235.78 29.8228 235.097 29.7555 234.438 29.8865C233.779 30.0176 233.174 30.341 232.699 30.8159C232.225 31.2908 231.901 31.8959 231.77 32.5546C231.639 33.2134 231.706 33.8962 231.963 34.5167C232.22 35.1372 232.656 35.6676 233.214 36.0407C233.773 36.4138 234.429 36.613 235.101 36.613C236.001 36.613 236.865 36.2552 237.502 35.6184C238.139 34.9815 238.497 34.1178 238.497 33.2171Z" fill="#F5F5F5"/>
<path d="M173.206 84.6643H203.802V49.4606L173.206 49.4606V84.6643Z" fill="#EBEBEB"/>
<path d="M176.534 51.7075C176.563 51.7152 176.594 51.7152 176.624 51.7075C176.709 51.6566 185.261 46.5685 187.983 46.5685C190.706 46.5685 198.861 51.6623 198.946 51.7019C198.966 51.7143 198.988 51.7227 199.011 51.7266C199.034 51.7305 199.057 51.7298 199.08 51.7245C199.102 51.7192 199.124 51.7095 199.143 51.6959C199.161 51.6823 199.177 51.6651 199.19 51.6453C199.213 51.6052 199.22 51.5576 199.21 51.5123C199.199 51.467 199.172 51.4275 199.133 51.4019C198.793 51.1925 190.802 46.2119 187.983 46.2119C185.165 46.2119 176.794 51.1868 176.443 51.4019C176.423 51.4136 176.405 51.4292 176.391 51.4479C176.377 51.4665 176.366 51.4878 176.361 51.5105C176.355 51.5332 176.354 51.5568 176.357 51.5799C176.36 51.6031 176.369 51.6253 176.381 51.6453C176.399 51.6674 176.423 51.6846 176.449 51.6955C176.476 51.7064 176.505 51.7105 176.534 51.7075Z" fill="#EBEBEB"/>
<path d="M169.73 84.6643H202.846V49.4606L169.73 49.4606V84.6643Z" fill="#F5F5F5"/>
<path d="M200.067 81.891V52.2395H172.504V81.891H200.067Z" fill="white"/>
<path d="M183.67 73.0563C183.67 72.3846 183.471 71.7281 183.098 71.1696C182.725 70.6112 182.195 70.1759 181.574 69.9189C180.954 69.6619 180.271 69.5946 179.612 69.7257C178.953 69.8567 178.348 70.1801 177.873 70.655C177.399 71.1299 177.075 71.735 176.944 72.3938C176.813 73.0525 176.88 73.7353 177.137 74.3558C177.394 74.9763 177.83 75.5067 178.388 75.8798C178.946 76.253 179.603 76.4521 180.275 76.4521C181.175 76.4521 182.039 76.0943 182.676 75.4575C183.313 74.8206 183.67 73.9569 183.67 73.0563Z" fill="#F5F5F5"/>
<path d="M195.652 61.0746C195.652 60.4029 195.453 59.7464 195.08 59.1879C194.707 58.6295 194.176 58.1942 193.556 57.9372C192.935 57.6802 192.253 57.6129 191.594 57.744C190.935 57.875 190.33 58.1984 189.855 58.6733C189.38 59.1483 189.057 59.7533 188.926 60.4121C188.795 61.0708 188.862 61.7536 189.119 62.3741C189.376 62.9946 189.811 63.525 190.37 63.8981C190.928 64.2713 191.585 64.4704 192.256 64.4704C193.157 64.4704 194.021 64.1126 194.658 63.4758C195.294 62.839 195.652 61.9752 195.652 61.0746Z" fill="#F5F5F5"/>
<path d="M188.906 73.0563C188.906 72.3846 189.105 71.7281 189.478 71.1696C189.851 70.6112 190.382 70.1759 191.002 69.9189C191.623 69.6619 192.305 69.5946 192.964 69.7257C193.623 69.8567 194.228 70.1801 194.703 70.655C195.178 71.1299 195.501 71.735 195.632 72.3938C195.763 73.0525 195.696 73.7353 195.439 74.3558C195.182 74.9763 194.747 75.5067 194.188 75.8798C193.63 76.253 192.973 76.4521 192.302 76.4521C191.401 76.4521 190.537 76.0943 189.9 75.4575C189.264 74.8206 188.906 73.9569 188.906 73.0563Z" fill="#F5F5F5"/>
<path d="M176.918 61.0746C176.918 60.4029 177.118 59.7464 177.491 59.1879C177.864 58.6295 178.394 58.1942 179.015 57.9372C179.635 57.6802 180.318 57.6129 180.977 57.744C181.635 57.875 182.241 58.1984 182.715 58.6733C183.19 59.1483 183.514 59.7533 183.645 60.4121C183.776 61.0708 183.709 61.7536 183.452 62.3741C183.195 62.9946 182.759 63.525 182.201 63.8981C181.642 64.2713 180.986 64.4704 180.314 64.4704C179.414 64.4704 178.55 64.1126 177.913 63.4758C177.276 62.839 176.918 61.9752 176.918 61.0746Z" fill="#F5F5F5"/>
<path d="M44.1292 107.547L154.393 107.547V13.7418L44.1292 13.7418L44.1292 107.547Z" fill="#E6E6E6"/>
<path d="M42.5444 107.547L152.808 107.547V13.7418L42.5444 13.7418L42.5444 107.547Z" fill="#F5F5F5"/>
<path d="M149.967 104.355V16.9341L45.3912 16.9341V104.355H149.967Z" fill="white"/>
<path d="M46.5854 104.355L46.5854 16.9341H45.3856L45.3856 104.355H46.5854Z" fill="#E6E6E6"/>
<path d="M43.7217 94.6765L151.631 94.6765V90.3864L43.7217 90.3864V94.6765Z" fill="#F5F5F5"/>
<path d="M39.4485 8.4556H157.488C157.546 8.45485 157.603 8.46557 157.657 8.48714C157.71 8.5087 157.759 8.54069 157.8 8.58123C157.841 8.62177 157.874 8.67006 157.896 8.72331C157.918 8.77656 157.93 8.83369 157.93 8.8914C157.93 8.94911 157.918 9.00625 157.896 9.0595C157.874 9.11274 157.841 9.16104 157.8 9.20158C157.759 9.24212 157.71 9.27411 157.657 9.29567C157.603 9.31724 157.546 9.32796 157.488 9.32721H39.4485C39.3908 9.32796 39.3336 9.31724 39.28 9.29567C39.2265 9.27411 39.1778 9.24212 39.1367 9.20158C39.0957 9.16104 39.063 9.11274 39.0408 9.0595C39.0185 9.00625 39.0071 8.94911 39.0071 8.8914C39.0071 8.83369 39.0185 8.77656 39.0408 8.72331C39.063 8.67006 39.0957 8.62177 39.1367 8.58123C39.1778 8.54069 39.2265 8.5087 39.28 8.48714C39.3336 8.46557 39.3908 8.45485 39.4485 8.4556Z" fill="#E6E6E6"/>
<path d="M36.8224 8.89151C36.8224 9.32495 36.951 9.74865 37.1919 10.109C37.4329 10.4693 37.7753 10.75 38.1758 10.9156C38.5764 11.0813 39.0171 11.1243 39.4421 11.0393C39.8672 10.9543 40.2574 10.7452 40.5635 10.4383C40.8696 10.1314 41.0778 9.7406 41.1616 9.31534C41.2455 8.89009 41.2013 8.44951 41.0347 8.04938C40.868 7.64925 40.5864 7.30756 40.2255 7.06756C39.8645 6.82757 39.4405 6.70006 39.0071 6.70118C38.7197 6.70118 38.4351 6.75788 38.1697 6.86802C37.9043 6.97816 37.6632 7.13959 37.4603 7.34305C37.2573 7.54652 37.0965 7.78803 36.9871 8.05374C36.8776 8.31945 36.8217 8.60414 36.8224 8.89151Z" fill="#E6E6E6"/>
<path d="M153.798 11.3194C153.875 11.3233 153.952 11.3115 154.024 11.2848C154.096 11.258 154.161 11.217 154.217 11.164C154.272 11.1111 154.317 11.0474 154.347 10.9768C154.377 10.9062 154.393 10.8302 154.393 10.7535V9.48001C154.393 9.40325 154.377 9.32726 154.347 9.25668C154.317 9.1861 154.272 9.12241 154.217 9.06946C154.161 9.01652 154.096 8.97544 154.024 8.94872C153.952 8.922 153.875 8.9102 153.798 8.91404C153.648 8.91404 153.504 8.97367 153.398 9.07981C153.292 9.18595 153.232 9.32991 153.232 9.48001V10.7535C153.232 10.9036 153.292 11.0475 153.398 11.1537C153.504 11.2598 153.648 11.3194 153.798 11.3194Z" fill="#E6E6E6"/>
<path d="M46.0478 11.3195C46.1979 11.3195 46.3419 11.2598 46.448 11.1537C46.5541 11.0475 46.6138 10.9036 46.6138 10.7535V9.48004C46.6138 9.32993 46.5541 9.18597 46.448 9.07983C46.3419 8.97369 46.1979 8.91406 46.0478 8.91406C45.8977 8.91406 45.7537 8.97369 45.6476 9.07983C45.5414 9.18597 45.4818 9.32993 45.4818 9.48004V10.7535C45.4818 10.9036 45.5414 11.0475 45.6476 11.1537C45.7537 11.2598 45.8977 11.3195 46.0478 11.3195Z" fill="#E6E6E6"/>
<path opacity="0.4" d="M39.5844 80.8328L151.631 80.8328V8.89157L39.5844 8.89157L39.5844 80.8328Z" fill="#E0E0E0"/>
<path d="M144.573 8.8915C144.573 9.32471 144.701 9.74818 144.942 10.1084C145.183 10.4686 145.525 10.7493 145.925 10.9151C146.325 11.0809 146.766 11.1243 147.191 11.0397C147.615 10.9552 148.006 10.7466 148.312 10.4403C148.618 10.134 148.827 9.74369 148.911 9.31881C148.996 8.89393 148.953 8.45353 148.787 8.0533C148.621 7.65307 148.34 7.31099 147.98 7.07031C147.62 6.82963 147.196 6.70117 146.763 6.70117C146.182 6.70117 145.625 6.93194 145.214 7.34271C144.804 7.75347 144.573 8.31059 144.573 8.8915Z" fill="#E6E6E6"/>
<path d="M211.816 123.083H211.409C211.426 123.006 211.437 122.929 211.443 122.851C211.443 121.153 209.366 119.766 206.796 119.761C206.956 119.416 207.041 119.042 207.045 118.663C207.045 116.965 205.41 115.567 203.383 115.567C202.831 115.569 202.285 115.68 201.776 115.895C201.795 115.786 201.808 115.677 201.816 115.567C201.816 113.359 199.699 111.565 197.084 111.565C194.888 111.565 193.066 112.833 192.522 114.542C191.833 113.825 191.004 113.258 190.085 112.876C189.167 112.494 188.18 112.306 187.185 112.324C186.042 112.293 184.908 112.542 183.882 113.049C182.856 113.556 181.97 114.306 181.299 115.233C180.931 114.869 180.494 114.582 180.014 114.388C179.534 114.193 179.021 114.096 178.503 114.101C176.483 114.101 174.847 115.482 174.847 117.191C174.848 117.571 174.933 117.946 175.096 118.289C172.526 118.289 170.444 119.676 170.444 121.385C170.452 121.544 170.476 121.701 170.517 121.855H170.07C166.674 121.855 163.935 122.987 163.935 124.441C163.935 125.896 166.68 127.022 170.07 127.022C171.321 127.036 172.567 126.861 173.766 126.501C175.158 128.477 179.499 129.897 184.638 129.897C190.57 129.897 195.437 127.978 195.958 125.533C197.663 126.132 199.46 126.423 201.267 126.394C202.763 126.405 204.253 126.215 205.698 125.828H205.727C205.964 127.163 208.607 128.216 211.839 128.216C215.235 128.216 217.98 127.056 217.98 125.63C217.98 124.203 215.207 123.083 211.816 123.083Z" fill="#E6E6E6"/>
<path d="M220.583 124.645C221.834 124.645 223.033 125.141 223.917 126.026C224.801 126.91 225.298 128.109 225.298 129.359C225.298 134.578 212.36 138.851 196.546 138.851H182.273C166.459 138.851 153.521 134.578 153.521 129.359C153.521 128.109 154.018 126.91 154.902 126.026C155.786 125.141 156.985 124.645 158.236 124.645H220.583Z" fill="#F0F0F0"/>
<path d="M89.3733 185.301H114.389V138.851H89.3733V185.301Z" fill="#E6E6E6"/>
<path d="M94.1218 185.3H89.3676V180.959H99.1023L94.1218 185.3Z" fill="#F0F0F0"/>
<path d="M225.077 185.301H250.093V138.851H225.077V185.301Z" fill="#E6E6E6"/>
<path d="M89.3732 183.382L229.226 183.382V138.857H89.3732V183.382Z" fill="#F0F0F0"/>
<path d="M224.472 185.3H229.22V180.959H219.491L224.472 185.3Z" fill="#F0F0F0"/>
<path d="M225.258 142.886V159.865H93.386V142.886H225.258ZM225.558 142.586H93.0577V160.171H225.536V142.586H225.558Z" fill="#FAFAFA"/>
<path d="M225.258 162.35V179.33H93.386V162.35H225.258ZM225.558 162.05H93.0577V179.646H225.536V162.05H225.558Z" fill="#FAFAFA"/>
<path d="M147.097 144.324H171.491C171.722 144.324 171.95 144.278 172.163 144.19C172.377 144.101 172.57 143.972 172.733 143.808C172.896 143.644 173.025 143.45 173.113 143.237C173.201 143.023 173.246 142.795 173.245 142.564H145.343C145.342 142.795 145.387 143.023 145.474 143.237C145.562 143.45 145.691 143.644 145.854 143.808C146.017 143.972 146.211 144.101 146.424 144.19C146.638 144.278 146.866 144.324 147.097 144.324Z" fill="#FAFAFA"/>
<path d="M147.097 163.805H171.491C171.721 163.805 171.949 163.759 172.162 163.671C172.375 163.583 172.568 163.454 172.731 163.291C172.894 163.128 173.023 162.935 173.112 162.722C173.2 162.509 173.245 162.281 173.245 162.05H145.343C145.343 162.516 145.527 162.962 145.856 163.291C146.185 163.62 146.632 163.805 147.097 163.805Z" fill="#FAFAFA"/>
<g opacity="0.2">
<path d="M141.494 210.86C202.1 210.86 251.231 207.992 251.231 204.453C251.231 200.915 202.1 198.046 141.494 198.046C80.8879 198.046 31.757 200.915 31.757 204.453C31.757 207.992 80.8879 210.86 141.494 210.86Z" fill="white"/>
</g>
<path d="M74.6579 74.5108L74.1542 74.2504C78.551 65.6659 84.4557 57.942 91.5862 51.4473L91.9711 51.8661C84.8893 58.3155 79.025 65.9858 74.6579 74.5108Z" fill="#4787AB"/>
<path d="M67.5718 94.716L67.0059 94.6028C67.8251 90.6007 68.949 86.667 70.3678 82.8362L70.8998 83.0343C69.4924 86.8371 68.3798 90.7425 67.5718 94.716Z" fill="#4787AB"/>
<path opacity="0.9" d="M190.723 155.866C215.719 130.87 215.719 90.3439 190.723 65.3479C165.727 40.352 125.201 40.352 100.205 65.3479C75.2087 90.3439 75.2087 130.87 100.205 155.866C125.201 180.862 165.727 180.862 190.723 155.866Z" fill="#FAFAFA"/>
<g opacity="0.4">
<path opacity="0.4" d="M100.172 146.407H85.1228L88.0319 139.264H97.263L100.172 146.407Z" fill="#407BFF"/>
<path opacity="0.2" d="M100.172 146.407H85.1228L88.0319 139.264H97.263L100.172 146.407Z" fill="#FAFAFA"/>
<path opacity="0.4" d="M123.043 146.407H100.172L97.2631 139.264H120.134L123.043 146.407Z" fill="#407BFF"/>
<path opacity="0.3" d="M123.043 146.407H100.172L97.2631 139.264H120.134L123.043 146.407Z" fill="black"/>
<path opacity="0.4" d="M119.381 146.407H104.326L107.236 139.264H116.472L119.381 146.407Z" fill="#407BFF"/>
<path opacity="0.2" d="M119.381 146.407H104.326L107.236 139.264H116.472L119.381 146.407Z" fill="#FAFAFA"/>
<path opacity="0.4" d="M142.247 146.407H119.381L116.472 139.264H139.338L142.247 146.407Z" fill="#407BFF"/>
<path opacity="0.3" d="M142.247 146.407H119.381L116.472 139.264H139.338L142.247 146.407Z" fill="black"/>
<path opacity="0.4" d="M138.585 146.407H123.536L126.445 139.264H135.676L138.585 146.407Z" fill="#407BFF"/>
<path opacity="0.2" d="M138.585 146.407H123.536L126.445 139.264H135.676L138.585 146.407Z" fill="#FAFAFA"/>
<path opacity="0.4" d="M161.45 146.407H138.585L135.676 139.264H158.547L161.45 146.407Z" fill="#407BFF"/>
<path opacity="0.3" d="M161.45 146.407H138.585L135.676 139.264H158.547L161.45 146.407Z" fill="black"/>
<path opacity="0.4" d="M157.789 146.407H142.739L145.648 139.264H154.879L157.789 146.407Z" fill="#407BFF"/>
<path opacity="0.2" d="M157.789 146.407H142.739L145.648 139.264H154.879L157.789 146.407Z" fill="#FAFAFA"/>
<path opacity="0.4" d="M180.66 146.407H157.789L154.879 139.264H177.75L180.66 146.407Z" fill="#407BFF"/>
<path opacity="0.3" d="M180.66 146.407H157.789L154.879 139.264H177.75L180.66 146.407Z" fill="black"/>
<path opacity="0.4" d="M176.998 146.407H161.943L164.852 139.264H174.089L176.998 146.407Z" fill="#407BFF"/>
<path opacity="0.2" d="M176.998 146.407H161.943L164.852 139.264H174.089L176.998 146.407Z" fill="#FAFAFA"/>
<path opacity="0.4" d="M189.2 146.407C189.928 144.041 190.589 141.66 191.181 139.264H174.089L176.998 146.407H189.2Z" fill="#407BFF"/>
<path opacity="0.3" d="M189.2 146.407C189.928 144.041 190.589 141.66 191.181 139.264H174.089L176.998 146.407H189.2Z" fill="black"/>
<path opacity="0.4" d="M191.181 139.264H184.061L181.152 146.407H189.2C189.932 144.041 190.592 141.66 191.181 139.264Z" fill="#407BFF"/>
<path opacity="0.2" d="M191.181 139.264H184.061L181.152 146.407H189.2C189.932 144.041 190.592 141.66 191.181 139.264Z" fill="#FAFAFA"/>
<path opacity="0.4" d="M106.041 139.264H90.9863L93.8954 132.116H103.132L106.041 139.264Z" fill="#407BFF"/>
<path opacity="0.2" d="M106.041 139.264H90.9863L93.8954 132.116H103.132L106.041 139.264Z" fill="#FAFAFA"/>
<path opacity="0.4" d="M128.907 139.264H106.041L103.132 132.116H125.998L128.907 139.264Z" fill="#407BFF"/>
<path opacity="0.3" d="M128.907 139.264H106.041L103.132 132.116H125.998L128.907 139.264Z" fill="black"/>
<path opacity="0.4" d="M125.245 139.264H110.196L113.105 132.116H122.336L125.245 139.264Z" fill="#407BFF"/>
<path opacity="0.2" d="M125.245 139.264H110.196L113.105 132.116H122.336L125.245 139.264Z" fill="#FAFAFA"/>
<path opacity="0.4" d="M148.11 139.264H125.245L122.336 132.116H145.207L148.11 139.264Z" fill="#407BFF"/>
<path opacity="0.3" d="M148.11 139.264H125.245L122.336 132.116H145.207L148.11 139.264Z" fill="black"/>
<path opacity="0.4" d="M144.448 139.264H129.399L132.308 132.116H141.539L144.448 139.264Z" fill="#407BFF"/>
<path opacity="0.2" d="M144.448 139.264H129.399L132.308 132.116H141.539L144.448 139.264Z" fill="#FAFAFA"/>
<path opacity="0.4" d="M167.32 139.264H144.448L141.539 132.116H164.41L167.32 139.264Z" fill="#407BFF"/>
<path opacity="0.3" d="M167.32 139.264H144.448L141.539 132.116H164.41L167.32 139.264Z" fill="black"/>
<path opacity="0.4" d="M163.658 139.264H148.603L151.512 132.116H160.748L163.658 139.264Z" fill="#407BFF"/>
<path opacity="0.2" d="M163.658 139.264H148.603L151.512 132.116H160.748L163.658 139.264Z" fill="#FAFAFA"/>
<path opacity="0.4" d="M186.523 139.264H163.658L160.749 132.116H183.614L186.523 139.264Z" fill="#407BFF"/>
<path opacity="0.3" d="M186.523 139.264H163.658L160.749 132.116H183.614L186.523 139.264Z" fill="black"/>
<path opacity="0.4" d="M182.861 139.264H167.812L170.721 132.116H179.952L182.861 139.264Z" fill="#407BFF"/>
<path opacity="0.2" d="M182.861 139.264H167.812L170.721 132.116H179.952L182.861 139.264Z" fill="#FAFAFA"/>
<path opacity="0.4" d="M191.181 139.264C191.747 136.893 192.285 134.515 192.726 132.116H179.98L182.89 139.264H191.181Z" fill="#407BFF"/>
<path opacity="0.3" d="M191.181 139.264C191.747 136.893 192.285 134.515 192.726 132.116H179.98L182.89 139.264H191.181Z" fill="black"/>
<path opacity="0.4" d="M192.726 132.116H189.925L187.016 139.264H191.181C191.764 136.893 192.285 134.515 192.726 132.116Z" fill="#407BFF"/>
<path opacity="0.2" d="M192.726 132.116H189.925L187.016 139.264H191.181C191.764 136.893 192.285 134.515 192.726 132.116Z" fill="#FAFAFA"/>
<path opacity="0.4" d="M111.067 132.116H96.0179L98.9271 124.973H108.158L111.067 132.116Z" fill="#407BFF"/>
<path opacity="0.2" d="M111.067 132.116H96.0179L98.9271 124.973H108.158L111.067 132.116Z" fill="#FAFAFA"/>
<path opacity="0.4" d="M133.938 132.116H111.067L108.158 124.973H131.029L133.938 132.116Z" fill="#407BFF"/>
<path opacity="0.3" d="M133.938 132.116H111.067L108.158 124.973H131.029L133.938 132.116Z" fill="black"/>
<path opacity="0.4" d="M130.276 132.116H115.221L118.131 124.973H127.362L130.276 132.116Z" fill="#407BFF"/>
<path opacity="0.2" d="M130.276 132.116H115.221L118.131 124.973H127.362L130.276 132.116Z" fill="#FAFAFA"/>
<path opacity="0.4" d="M153.142 132.116H130.276L127.362 124.973H150.233L153.142 132.116Z" fill="#407BFF"/>
<path opacity="0.3" d="M153.142 132.116H130.276L127.362 124.973H150.233L153.142 132.116Z" fill="black"/>
<path opacity="0.4" d="M149.48 132.116H134.431L137.34 124.973H146.571L149.48 132.116Z" fill="#407BFF"/>
<path opacity="0.2" d="M149.48 132.116H134.431L137.34 124.973H146.571L149.48 132.116Z" fill="#FAFAFA"/>
<path opacity="0.4" d="M172.345 132.116H149.48L146.571 124.973H169.436L172.345 132.116Z" fill="#407BFF"/>
<path opacity="0.3" d="M172.345 132.116H149.48L146.571 124.973H169.436L172.345 132.116Z" fill="black"/>
<path opacity="0.4" d="M168.684 132.116H153.634L156.543 124.973H165.774L168.684 132.116Z" fill="#407BFF"/>
<path opacity="0.2" d="M168.684 132.116H153.634L156.543 124.973H165.774L168.684 132.116Z" fill="#FAFAFA"/>
<path opacity="0.4" d="M191.555 132.116H168.684L165.774 124.973H188.645L191.555 132.116Z" fill="#407BFF"/>
<path opacity="0.3" d="M191.555 132.116H168.684L165.774 124.973H188.645L191.555 132.116Z" fill="black"/>
<path opacity="0.4" d="M187.893 132.116H172.838L175.747 124.973H184.984L187.893 132.116Z" fill="#407BFF"/>
<path opacity="0.2" d="M187.893 132.116H172.838L175.747 124.973H184.984L187.893 132.116Z" fill="#FAFAFA"/>
<path opacity="0.4" d="M192.726 132.116C193.168 129.75 193.545 127.369 193.858 124.973H184.984L187.904 132.116H192.726Z" fill="#407BFF"/>
<path opacity="0.3" d="M192.726 132.116C193.168 129.75 193.545 127.369 193.858 124.973H184.984L187.904 132.116H192.726Z" fill="black"/>
<path opacity="0.4" d="M193.23 129.207L192.047 132.116H192.726C192.907 131.15 193.075 130.18 193.23 129.207Z" fill="#407BFF"/>
<path opacity="0.2" d="M193.23 129.207L192.047 132.116H192.726C192.907 131.15 193.075 130.18 193.23 129.207Z" fill="#FAFAFA"/>
<path opacity="0.4" d="M116.931 124.973H101.881L104.79 117.831H114.027L116.931 124.973Z" fill="#407BFF"/>
<path opacity="0.2" d="M116.931 124.973H101.881L104.79 117.831H114.027L116.931 124.973Z" fill="#FAFAFA"/>
<path opacity="0.4" d="M139.802 124.973H116.931L114.027 117.831H136.893L139.802 124.973Z" fill="#407BFF"/>
<path opacity="0.3" d="M139.802 124.973H116.931L114.027 117.831H136.893L139.802 124.973Z" fill="black"/>
<path opacity="0.4" d="M136.14 124.973H121.091L124 117.831H133.231L136.14 124.973Z" fill="#407BFF"/>
<path opacity="0.2" d="M136.14 124.973H121.091L124 117.831H133.231L136.14 124.973Z" fill="#FAFAFA"/>
<path opacity="0.4" d="M159.005 124.973H136.14L133.231 117.831H156.102L159.005 124.973Z" fill="#407BFF"/>
<path opacity="0.3" d="M159.005 124.973H136.14L133.231 117.831H156.102L159.005 124.973Z" fill="black"/>
<path opacity="0.4" d="M155.343 124.973H140.294L143.203 117.831H152.434L155.343 124.973Z" fill="#407BFF"/>
<path opacity="0.2" d="M155.343 124.973H140.294L143.203 117.831H152.434L155.343 124.973Z" fill="#FAFAFA"/>
<path opacity="0.4" d="M178.215 124.973H155.343L152.434 117.831H175.305L178.215 124.973Z" fill="#407BFF"/>
<path opacity="0.3" d="M178.215 124.973H155.343L152.434 117.831H175.305L178.215 124.973Z" fill="black"/>
<path opacity="0.4" d="M174.553 124.973H159.498L162.407 117.831H171.644L174.553 124.973Z" fill="#407BFF"/>
<path opacity="0.2" d="M174.553 124.973H159.498L162.407 117.831H171.644L174.553 124.973Z" fill="#FAFAFA"/>
<path opacity="0.4" d="M193.835 124.973C194.13 122.6 194.347 120.219 194.486 117.831H171.644L174.553 124.973H193.835Z" fill="#407BFF"/>
<path opacity="0.3" d="M193.835 124.973C194.13 122.6 194.347 120.219 194.486 117.831H171.644L174.553 124.973H193.835Z" fill="black"/>
<path opacity="0.4" d="M193.756 124.973H178.707L181.616 117.831H190.847L193.756 124.973Z" fill="#407BFF"/>
<path opacity="0.2" d="M193.756 124.973H178.707L181.616 117.831H190.847L193.756 124.973Z" fill="#FAFAFA"/>
<path opacity="0.4" d="M193.836 124.973C194.13 122.6 194.347 120.219 194.486 117.831H190.847L193.756 124.973H193.836Z" fill="#407BFF"/>
<path opacity="0.3" d="M193.836 124.973C194.13 122.6 194.347 120.219 194.486 117.831H190.847L193.756 124.973H193.836Z" fill="black"/>
<path opacity="0.4" d="M113.597 174.983H118.736L115.827 167.84H104.428C107.664 169.981 110.73 172.369 113.597 174.983Z" fill="#407BFF"/>
<path opacity="0.3" d="M113.597 174.983H118.736L115.827 167.84H104.428C107.664 169.981 110.73 172.369 113.597 174.983Z" fill="black"/>
<path opacity="0.4" d="M113.597 174.983H115.074L112.165 167.84H104.428C107.664 169.981 110.73 172.369 113.597 174.983Z" fill="#407BFF"/>
<path opacity="0.2" d="M113.597 174.983H115.074L112.165 167.84H104.428C107.664 169.981 110.73 172.369 113.597 174.983Z" fill="#FAFAFA"/>
<path opacity="0.4" d="M137.94 174.983H115.074L112.165 167.84H135.031L137.94 174.983Z" fill="#407BFF"/>
<path opacity="0.3" d="M137.94 174.983H115.074L112.165 167.84H135.031L137.94 174.983Z" fill="black"/>
<path opacity="0.4" d="M134.278 174.983H119.229L122.138 167.84H131.369L134.278 174.983Z" fill="#407BFF"/>
<path opacity="0.2" d="M134.278 174.983H119.229L122.138 167.84H131.369L134.278 174.983Z" fill="#FAFAFA"/>
<path opacity="0.4" d="M157.143 174.983H134.278L131.369 167.84H154.234L157.143 174.983Z" fill="#407BFF"/>
<path opacity="0.3" d="M157.143 174.983H134.278L131.369 167.84H154.234L157.143 174.983Z" fill="black"/>
<path opacity="0.4" d="M153.481 174.983H138.432L141.341 167.84H150.572L153.481 174.983Z" fill="#407BFF"/>
<path opacity="0.2" d="M153.481 174.983H138.432L141.341 167.84H150.572L153.481 174.983Z" fill="#FAFAFA"/>
<path opacity="0.4" d="M176.228 174.677L173.443 167.84H150.55L153.459 174.983H175.888C176.019 174.887 176.12 174.779 176.228 174.677Z" fill="#407BFF"/>
<path opacity="0.3" d="M176.228 174.677L173.443 167.84H150.55L153.459 174.983H175.888C176.019 174.887 176.12 174.779 176.228 174.677Z" fill="black"/>
<path opacity="0.4" d="M172.691 174.983H157.636L160.545 167.84H169.781L172.691 174.983Z" fill="#407BFF"/>
<path opacity="0.2" d="M172.691 174.983H157.636L160.545 167.84H169.781L172.691 174.983Z" fill="#FAFAFA"/>
<path opacity="0.4" d="M175.911 174.983C178.018 172.905 179.765 170.491 181.078 167.84H169.793L172.702 174.983H175.911Z" fill="#407BFF"/>
<path opacity="0.3" d="M175.911 174.983C178.018 172.905 179.765 170.491 181.078 167.84H169.793L172.702 174.983H175.911Z" fill="black"/>
<path opacity="0.4" d="M181.078 167.84H179.754L177.558 173.228C178.921 171.563 180.101 169.757 181.078 167.84Z" fill="#407BFF"/>
<path opacity="0.2" d="M181.078 167.84H179.754L177.558 173.228C178.921 171.563 180.101 169.757 181.078 167.84Z" fill="#FAFAFA"/>
<path opacity="0.4" d="M95.8311 161.496C98.5535 163.799 101.491 165.808 104.428 167.84H105.396L102.487 160.698H94.9086C95.2142 160.964 95.5198 161.235 95.8311 161.496Z" fill="#407BFF"/>
<path opacity="0.3" d="M95.8311 161.496C98.5535 163.799 101.491 165.808 104.428 167.84H105.396L102.487 160.698H94.9086C95.2142 160.964 95.5198 161.235 95.8311 161.496Z" fill="black"/>
<path opacity="0.4" d="M95.8311 161.496C97.3819 162.809 99.0062 164.026 100.659 165.203L98.8251 160.675H94.9086C95.2142 160.964 95.5198 161.235 95.8311 161.496Z" fill="#407BFF"/>
<path opacity="0.2" d="M95.8311 161.496C97.3819 162.809 99.0062 164.026 100.659 165.203L98.8251 160.675H94.9086C95.2142 160.964 95.5198 161.235 95.8311 161.496Z" fill="#FAFAFA"/>
<path opacity="0.4" d="M104.428 167.84H124.6L121.685 160.698H98.8195L100.653 165.225C101.904 166.097 103.172 166.963 104.428 167.84Z" fill="#407BFF"/>
<path opacity="0.3" d="M104.428 167.84H124.6L121.685 160.698H98.8195L100.653 165.225C101.904 166.097 103.172 166.963 104.428 167.84Z" fill="black"/>
<path opacity="0.4" d="M120.938 167.84H105.889L108.798 160.698H118.029L120.938 167.84Z" fill="#407BFF"/>
<path opacity="0.2" d="M120.938 167.84H105.889L108.798 160.698H118.029L120.938 167.84Z" fill="#FAFAFA"/>
<path opacity="0.4" d="M143.809 167.84H120.938L118.029 160.698H140.9L143.809 167.84Z" fill="#407BFF"/>
<path opacity="0.3" d="M143.809 167.84H120.938L118.029 160.698H140.9L143.809 167.84Z" fill="black"/>
<path opacity="0.4" d="M140.141 167.84H125.092L128.001 160.698H137.232L140.141 167.84Z" fill="#407BFF"/>
<path opacity="0.2" d="M140.141 167.84H125.092L128.001 160.698H137.232L140.141 167.84Z" fill="#FAFAFA"/>
<path opacity="0.4" d="M163.012 167.84H140.141L137.232 160.698H160.103L163.012 167.84Z" fill="#407BFF"/>
<path opacity="0.3" d="M163.012 167.84H140.141L137.232 160.698H160.103L163.012 167.84Z" fill="black"/>
<path opacity="0.4" d="M159.351 167.84H144.301L147.21 160.698H156.441L159.351 167.84Z" fill="#407BFF"/>
<path opacity="0.2" d="M159.351 167.84H144.301L147.21 160.698H156.441L159.351 167.84Z" fill="#FAFAFA"/>
<path opacity="0.4" d="M181.707 166.595L179.307 160.698H156.442L159.351 167.84H181.078C181.299 167.427 181.503 167.014 181.707 166.595Z" fill="#407BFF"/>
<path opacity="0.3" d="M181.707 166.595L179.307 160.698H156.442L159.351 167.84H181.078C181.299 167.427 181.503 167.014 181.707 166.595Z" fill="black"/>
<path opacity="0.4" d="M178.554 167.84H163.505L166.414 160.698H175.645L178.554 167.84Z" fill="#407BFF"/>
<path opacity="0.2" d="M178.554 167.84H163.505L166.414 160.698H175.645L178.554 167.84Z" fill="#FAFAFA"/>
<path opacity="0.4" d="M181.078 167.84C182.262 165.524 183.306 163.139 184.203 160.698H175.645L178.554 167.84H181.078Z" fill="#407BFF"/>
<path opacity="0.3" d="M181.078 167.84C182.262 165.524 183.306 163.139 184.203 160.698H175.645L178.554 167.84H181.078Z" fill="black"/>
<path opacity="0.4" d="M94.9086 160.698H110.422L107.535 153.549H88.049C90.1366 156.115 92.4308 158.506 94.9086 160.698Z" fill="#407BFF"/>
<path opacity="0.3" d="M94.9086 160.698H110.422L107.535 153.549H88.049C90.1366 156.115 92.4308 158.506 94.9086 160.698Z" fill="black"/>
<path opacity="0.4" d="M94.9086 160.698H106.76L103.851 153.549H94.62L92.5881 158.536C93.339 159.279 94.1125 160 94.9086 160.698Z" fill="#407BFF"/>
<path opacity="0.2" d="M94.9086 160.698H106.76L103.851 153.549H94.62L92.5881 158.536C93.339 159.279 94.1125 160 94.9086 160.698Z" fill="#FAFAFA"/>
<path opacity="0.4" d="M129.631 160.698H106.76L103.851 153.549H126.722L129.631 160.698Z" fill="#407BFF"/>
<path opacity="0.3" d="M129.631 160.698H106.76L103.851 153.549H126.722L129.631 160.698Z" fill="black"/>
<path opacity="0.4" d="M125.964 160.698H110.914L113.824 153.549H123.06L125.964 160.698Z" fill="#407BFF"/>
<path opacity="0.2" d="M125.964 160.698H110.914L113.824 153.549H123.06L125.964 160.698Z" fill="#FAFAFA"/>
<path opacity="0.4" d="M148.835 160.698H125.964L123.06 153.549H145.926L148.835 160.698Z" fill="#407BFF"/>
<path opacity="0.3" d="M148.835 160.698H125.964L123.06 153.549H145.926L148.835 160.698Z" fill="black"/>
<path opacity="0.4" d="M145.173 160.698H130.124L133.033 153.549H142.264L145.173 160.698Z" fill="#407BFF"/>
<path opacity="0.2" d="M145.173 160.698H130.124L133.033 153.549H142.264L145.173 160.698Z" fill="#FAFAFA"/>
<path opacity="0.4" d="M168.038 160.698H145.173L142.264 153.549H165.129L168.038 160.698Z" fill="#407BFF"/>
<path opacity="0.3" d="M168.038 160.698H145.173L142.264 153.549H165.129L168.038 160.698Z" fill="black"/>
<path opacity="0.4" d="M164.376 160.698H149.327L152.236 153.549H161.467L164.376 160.698Z" fill="#407BFF"/>
<path opacity="0.2" d="M164.376 160.698H149.327L152.236 153.549H161.467L164.376 160.698Z" fill="#FAFAFA"/>
<path opacity="0.4" d="M185.64 156.741L184.344 153.549H161.467L164.376 160.698H184.186C184.712 159.351 185.182 158.021 185.64 156.741Z" fill="#407BFF"/>
<path opacity="0.3" d="M185.64 156.741L184.344 153.549H161.467L164.376 160.698H184.186C184.712 159.351 185.182 158.021 185.64 156.741Z" fill="black"/>
<path opacity="0.4" d="M183.586 160.698H168.531L171.44 153.549H180.677L183.586 160.698Z" fill="#407BFF"/>
<path opacity="0.2" d="M183.586 160.698H168.531L171.44 153.549H180.677L183.586 160.698Z" fill="#FAFAFA"/>
<path opacity="0.4" d="M184.203 160.698C185.136 158.224 185.951 155.808 186.744 153.668C186.754 153.628 186.768 153.588 186.783 153.549H180.677L183.586 160.698H184.203Z" fill="#407BFF"/>
<path opacity="0.3" d="M184.203 160.698C185.136 158.224 185.951 155.808 186.744 153.668C186.754 153.628 186.768 153.588 186.783 153.549H180.677L183.586 160.698H184.203Z" fill="black"/>
<path opacity="0.4" d="M88.049 153.549H93.4201L90.5109 146.407H83.0061C84.5195 148.902 86.2045 151.288 88.049 153.549Z" fill="#407BFF"/>
<path opacity="0.2" d="M88.049 153.549H93.4201L90.5109 146.407H83.0061C84.5195 148.902 86.2045 151.288 88.049 153.549Z" fill="#FAFAFA"/>
<path opacity="0.4" d="M116.291 153.549H93.4201L90.511 146.407H113.382L116.291 153.549Z" fill="#407BFF"/>
<path opacity="0.3" d="M116.291 153.549H93.4201L90.511 146.407H113.382L116.291 153.549Z" fill="black"/>
<path opacity="0.4" d="M112.629 153.549H97.5743L100.483 146.407H109.72L112.629 153.549Z" fill="#407BFF"/>
<path opacity="0.2" d="M112.629 153.549H97.5743L100.483 146.407H109.72L112.629 153.549Z" fill="#FAFAFA"/>
<path opacity="0.4" d="M135.495 153.549H112.629L109.72 146.407H132.586L135.495 153.549Z" fill="#407BFF"/>
<path opacity="0.3" d="M135.495 153.549H112.629L109.72 146.407H132.586L135.495 153.549Z" fill="black"/>
<path opacity="0.4" d="M131.833 153.549H116.784L119.693 146.407H128.924L131.833 153.549Z" fill="#407BFF"/>
<path opacity="0.2" d="M131.833 153.549H116.784L119.693 146.407H128.924L131.833 153.549Z" fill="#FAFAFA"/>
<path opacity="0.4" d="M154.698 153.549H131.833L128.924 146.407H151.789L154.698 153.549Z" fill="#407BFF"/>
<path opacity="0.3" d="M154.698 153.549H131.833L128.924 146.407H151.789L154.698 153.549Z" fill="black"/>
<path opacity="0.4" d="M151.036 153.549H135.987L138.896 146.407H148.127L151.036 153.549Z" fill="#407BFF"/>
<path opacity="0.2" d="M151.036 153.549H135.987L138.896 146.407H148.127L151.036 153.549Z" fill="#FAFAFA"/>
<path opacity="0.4" d="M173.908 153.549H151.036L148.127 146.407H170.998L173.908 153.549Z" fill="#407BFF"/>
<path opacity="0.3" d="M173.908 153.549H151.036L148.127 146.407H170.998L173.908 153.549Z" fill="black"/>
<path opacity="0.4" d="M170.246 153.549H155.191L158.1 146.407H167.337L170.246 153.549Z" fill="#407BFF"/>
<path opacity="0.2" d="M170.246 153.549H155.191L158.1 146.407H167.337L170.246 153.549Z" fill="#FAFAFA"/>
<path opacity="0.4" d="M186.772 153.549C187.644 151.187 188.449 148.806 189.189 146.407H167.337L170.246 153.549H186.772Z" fill="#407BFF"/>
<path opacity="0.3" d="M186.772 153.549C187.644 151.187 188.449 148.806 189.189 146.407H167.337L170.246 153.549H186.772Z" fill="black"/>
<path opacity="0.4" d="M188.017 150.04L186.54 146.407H177.309L174.4 153.549H186.772C187.214 152.389 187.621 151.218 188.017 150.04Z" fill="#407BFF"/>
<path opacity="0.2" d="M188.017 150.04L186.54 146.407H177.309L174.4 153.549H186.772C187.214 152.389 187.621 151.218 188.017 150.04Z" fill="#FAFAFA"/>
<path opacity="0.4" d="M189.2 146.407H186.54L188.017 150.04C188.432 148.837 188.827 147.625 189.2 146.407Z" fill="#407BFF"/>
<path opacity="0.3" d="M189.2 146.407H186.54L188.017 150.04C188.432 148.837 188.827 147.625 189.2 146.407Z" fill="black"/>
</g>
<path d="M145.558 32.4927C130.095 32.4927 114.981 37.0777 102.124 45.6681C89.2678 54.2584 79.2475 66.4682 73.3304 80.7534C67.4133 95.0386 65.8651 110.758 68.8816 125.923C71.8981 141.088 79.3439 155.018 90.2773 165.951C101.211 176.885 115.141 184.33 130.306 187.347C145.471 190.364 161.19 188.815 175.475 182.898C189.76 176.981 201.97 166.961 210.561 154.104C219.151 141.248 223.736 126.133 223.736 110.671C223.736 89.9368 215.499 70.0518 200.838 55.3906C186.177 40.7293 166.292 32.4927 145.558 32.4927ZM145.456 174.615C132.797 174.614 120.422 170.859 109.897 163.825C99.3724 156.791 91.1694 146.795 86.3258 135.099C81.4822 123.403 80.2155 110.534 82.6858 98.1182C85.1561 85.7026 91.2526 74.2983 100.204 65.3474C109.156 56.3966 120.561 50.3011 132.977 47.8319C145.392 45.3627 158.262 46.6305 169.957 51.4752C181.652 56.3198 191.648 64.5237 198.681 75.0493C205.714 85.575 209.468 97.9497 209.468 110.609C209.468 119.015 207.812 127.338 204.595 135.104C201.378 142.87 196.663 149.926 190.719 155.87C184.775 161.813 177.718 166.528 169.952 169.744C162.185 172.961 153.862 174.616 145.456 174.615Z" fill="#4787AB"/>
<path opacity="0.4" d="M145.558 184.825C186.444 184.825 219.7 151.557 219.7 110.682C219.7 69.8074 186.432 36.5393 145.558 36.5393C104.683 36.5393 71.4148 69.8017 71.4148 110.682C71.4148 151.563 104.666 184.825 145.558 184.825ZM145.558 37.1053C165.064 37.1307 183.763 44.8907 197.556 58.6836C211.349 72.4764 219.109 91.1762 219.134 110.682C219.134 151.257 186.121 184.259 145.558 184.259C104.994 184.259 71.9808 151.246 71.9808 110.682C71.9808 70.1187 104.977 37.0826 145.558 37.0826V37.1053Z" fill="#FAFAFA"/>
<path d="M125.748 59.4275C128.952 60.1859 132.235 60.9443 135.478 61.6348C138.721 62.3253 141.981 62.9535 145.173 63.3836L146.356 63.5195L146.644 63.5478H146.599C146.599 63.5478 146.627 63.5478 146.69 63.5478C147.2 63.4178 147.684 63.2015 148.122 62.9082C149.392 62.0732 150.585 61.1262 151.687 60.0783C154.042 57.8993 156.339 55.4317 158.552 52.9753L161.139 54.7695C159.445 57.8411 157.464 60.7461 155.225 63.4459C154.041 64.8963 152.703 66.2133 151.234 67.3738C150.32 68.1083 149.278 68.6685 148.161 69.0264C147.792 69.1385 147.413 69.2143 147.029 69.2528C146.803 69.2672 146.576 69.2672 146.35 69.2528H146.005L144.658 69.1849C141.175 68.9269 137.709 68.4715 134.278 67.8209C130.882 67.1983 127.554 66.4625 124.186 65.557L125.748 59.4275Z" fill="#7F3E3B"/>
<path d="M120.892 65.1776C123.156 68.449 136.74 69.7054 136.74 69.7054L137.572 61.0007C134.113 59.7891 130.554 58.8838 126.937 58.2953C117.344 56.9257 118.425 61.5893 120.892 65.1776Z" fill="#407BFF"/>
<path d="M120.892 65.1776C123.156 68.449 136.74 69.7054 136.74 69.7054L137.572 61.0007C134.113 59.7891 130.554 58.8838 126.937 58.2953C117.344 56.9257 118.425 61.5893 120.892 65.1776Z" fill="#009AF2"/>
<path d="M158.02 54.062L159.101 50.0549L162.831 51.6566C162.831 51.6566 161.258 55.975 159.837 55.76L158.02 54.062Z" fill="#7F3E3B"/>
<path d="M162.18 47.576L165.265 47.3835L162.831 51.6567L159.101 50.055L162.18 47.576Z" fill="#7F3E3B"/>
<path d="M130.016 59.2633C130.016 59.2633 135.404 71.9355 131.521 95.531H109.075C108.803 92.0842 110.382 75.2804 106.5 59.0482C108.968 58.5675 111.466 58.2499 113.976 58.0974C117.154 57.9161 120.34 57.9161 123.519 58.0974C125.711 58.32 127.883 58.7098 130.016 59.2633Z" fill="#407BFF"/>
<path d="M130.016 59.2633C130.016 59.2633 135.404 71.9355 131.521 95.531H109.075C108.803 92.0842 110.382 75.2804 106.5 59.0482C108.968 58.5675 111.466 58.2499 113.976 58.0974C117.154 57.9161 120.34 57.9161 123.519 58.0974C125.711 58.32 127.883 58.7098 130.016 59.2633Z" fill="#009AF2"/>
<path opacity="0.3" d="M107.201 62.2969C108.251 67.8516 108.872 73.4789 109.058 79.129C109.88 75.8187 110.437 72.4479 110.722 69.049C110.959 65.2852 109.499 62.9025 107.201 62.2969Z" fill="black"/>
<path d="M123.32 77.2387C121.328 75.0484 117.904 70.6847 116.84 66.7625L122.183 63.9326L127.158 66.4795C127.107 69.8131 125.33 74.3296 124.056 77.0802C123.892 77.4142 123.552 77.4991 123.32 77.2387Z" fill="#FAFAFA"/>
<path d="M114.553 47.3552C115.261 50.4285 116.053 56.0486 113.987 58.1088C113.987 58.1088 114.887 60.65 120.592 60.65C126.863 60.65 123.53 58.1088 123.53 58.1088C120.077 57.2938 120.077 54.7525 120.592 52.3698L114.553 47.3552Z" fill="#7F3E3B"/>
<path opacity="0.2" d="M117.01 49.3984L120.581 52.3528C120.453 52.9108 120.373 53.4789 120.343 54.0508C119.03 53.864 117.185 52.4264 116.998 51.0568C116.899 50.5081 116.902 49.9456 117.01 49.3984Z" fill="black"/>
<path d="M123.779 45.6006C124.707 44.8082 125.126 40.071 123.298 37.8014C121.47 35.5318 119.902 41.0331 119.902 41.0331C119.902 41.0331 120.74 48.204 123.779 45.6006Z" fill="#263238"/>
<path d="M113.195 44.1461C114.474 48.1079 115.018 50.502 117.598 52.1264C118.431 52.6615 119.394 52.9588 120.383 52.9861C121.373 53.0134 122.351 52.7696 123.211 52.2812C124.072 51.7928 124.783 51.0784 125.267 50.2151C125.751 49.3518 125.99 48.3727 125.958 47.3835C125.907 43.5745 123.824 37.711 119.438 36.9808C118.493 36.7971 117.516 36.865 116.606 37.1779C115.695 37.4908 114.883 38.0376 114.25 38.7635C113.618 39.4894 113.188 40.3688 113.002 41.3135C112.817 42.2583 112.884 43.2351 113.195 44.1461Z" fill="#7F3E3B"/>
<path d="M123.881 35.9621C124.013 35.7213 124.077 35.4496 124.068 35.1753C124.065 34.8456 123.958 34.5251 123.761 34.2602C123.565 33.9953 123.289 33.7997 122.975 33.7015C122.66 33.6032 122.322 33.6075 122.01 33.7138C121.698 33.82 121.427 34.0226 121.238 34.2924C120.917 33.9248 120.518 33.6326 120.071 33.4369C119.624 33.2412 119.139 33.1468 118.651 33.1605C118.138 33.1777 117.636 33.3153 117.185 33.5623C116.894 33.3144 116.52 33.1851 116.138 33.2001C115.767 33.2134 115.413 33.3587 115.139 33.6097C114.865 33.8607 114.69 34.2011 114.644 34.5698C114.485 34.5442 114.324 34.5328 114.163 34.5358C113.497 34.5594 112.867 34.8461 112.412 35.333C111.957 35.82 111.714 36.4675 111.735 37.1336C111.735 37.1336 111.735 37.1336 111.735 37.1676C111.639 37.1617 111.542 37.1617 111.446 37.1676C111.178 37.1771 110.914 37.2394 110.67 37.3509C110.425 37.4625 110.206 37.6211 110.023 37.8177C109.84 38.0143 109.697 38.245 109.604 38.4966C109.51 38.7483 109.467 39.016 109.477 39.2843V39.3183C109.221 39.4571 109.01 39.6649 108.867 39.9181C108.723 40.1713 108.654 40.4597 108.667 40.7502C108.679 41.0594 108.781 41.3583 108.961 41.6098C109.141 41.8614 109.391 42.0545 109.68 42.1652C109.719 42.6446 109.927 43.0946 110.267 43.4347C110.607 43.7748 111.057 43.9828 111.537 44.0216C111.758 46.0025 112.471 49.0701 114.786 47.4853C115.668 46.8797 116.483 43.2065 115.606 40.6597C115.674 40.6597 115.748 40.6597 115.821 40.6597C116.203 40.6455 116.577 40.5437 116.914 40.3622C117.25 40.1807 117.541 39.9242 117.763 39.6126C118.247 39.7718 118.761 39.8174 119.265 39.7458C119.77 39.6741 120.251 39.4872 120.672 39.1994C120.853 39.2629 121.045 39.2936 121.238 39.29C121.502 39.278 121.758 39.2002 121.985 39.0636C122.306 39.2822 122.688 39.395 123.077 39.3862C123.481 39.3738 123.87 39.2281 124.183 38.9718C124.496 38.7155 124.715 38.3629 124.807 37.9691C124.898 37.5752 124.857 37.1621 124.69 36.794C124.522 36.4259 124.238 36.1234 123.881 35.9338V35.9621Z" fill="#263238"/>
<path d="M112.51 48.9796C113.269 49.7173 114.282 50.1365 115.34 50.1512C116.738 50.1512 117.038 48.8268 116.285 47.7175C115.618 46.727 114.089 45.5272 112.856 46.0592C111.622 46.5912 111.582 48.0684 112.51 48.9796Z" fill="#7F3E3B"/>
<path d="M119.659 43.9196C119.738 44.2479 119.981 44.4856 120.225 44.429C120.468 44.3724 120.547 44.0724 120.462 43.7441C120.377 43.4159 120.134 43.1782 119.896 43.2404C119.659 43.3027 119.574 43.58 119.659 43.9196Z" fill="#263238"/>
<path d="M123.383 43.0989C123.468 43.4272 123.711 43.6649 123.949 43.6083C124.186 43.5517 124.271 43.2574 124.186 42.9291C124.101 42.6008 123.858 42.3631 123.62 42.4197C123.383 42.4763 123.309 42.7706 123.383 43.0989Z" fill="#263238"/>
<path d="M122.251 43.5234C122.906 44.4412 123.678 45.2689 124.549 45.9854C124.36 46.1955 124.127 46.3616 123.867 46.4721C123.607 46.5825 123.326 46.6347 123.043 46.625L122.251 43.5234Z" fill="#630F0F"/>
<path d="M121.611 47.8192C120.922 47.826 120.253 47.585 119.726 47.14C119.708 47.1219 119.698 47.0975 119.698 47.0721C119.698 47.0466 119.708 47.0222 119.726 47.0041C119.735 46.9944 119.746 46.9866 119.759 46.9812C119.771 46.9759 119.784 46.9731 119.797 46.9731C119.81 46.9731 119.824 46.9759 119.836 46.9812C119.848 46.9866 119.859 46.9944 119.868 47.0041C120.199 47.2734 120.587 47.4642 121.003 47.5622C121.418 47.6602 121.851 47.6629 122.268 47.5701C122.293 47.5649 122.32 47.5696 122.342 47.5833C122.364 47.597 122.38 47.6186 122.387 47.6437C122.39 47.6567 122.39 47.6703 122.388 47.6836C122.386 47.6969 122.381 47.7095 122.373 47.7207C122.366 47.7319 122.356 47.7414 122.345 47.7486C122.333 47.7559 122.321 47.7606 122.307 47.7626C122.078 47.8081 121.845 47.8271 121.611 47.8192Z" fill="#263238"/>
<path d="M118.176 42.9746C118.15 42.9799 118.123 42.9799 118.096 42.9746C118.072 42.9648 118.05 42.9501 118.032 42.9315C118.013 42.9129 117.999 42.8907 117.989 42.8664C117.98 42.842 117.975 42.8159 117.976 42.7898C117.977 42.7636 117.983 42.7379 117.995 42.7143C118.115 42.4275 118.304 42.1745 118.545 41.9773C118.786 41.78 119.071 41.6445 119.376 41.5823C119.428 41.5772 119.48 41.5917 119.522 41.6232C119.564 41.6546 119.592 41.7006 119.602 41.7521C119.608 41.8045 119.594 41.8574 119.563 41.8996C119.531 41.9418 119.484 41.9701 119.432 41.9785C119.193 42.0325 118.97 42.1435 118.783 42.3022C118.595 42.4608 118.449 42.6624 118.357 42.8897C118.337 42.9187 118.31 42.9418 118.278 42.9567C118.246 42.9716 118.211 42.9778 118.176 42.9746Z" fill="#263238"/>
<path d="M124.656 41.4747C124.627 41.4749 124.598 41.4684 124.571 41.4556C124.545 41.4429 124.521 41.4242 124.503 41.4011C124.344 41.2031 124.142 41.0433 123.913 40.9336C123.684 40.8239 123.433 40.767 123.179 40.7672C123.126 40.7717 123.074 40.7552 123.034 40.7212C122.994 40.6872 122.968 40.6386 122.964 40.5861C122.959 40.5336 122.976 40.4814 123.01 40.4411C123.044 40.4007 123.092 40.3755 123.145 40.371C123.463 40.3646 123.779 40.4311 124.067 40.5655C124.355 40.6999 124.609 40.8986 124.809 41.1464C124.842 41.188 124.858 41.2408 124.852 41.2937C124.847 41.3465 124.821 41.3952 124.781 41.4294C124.746 41.4583 124.702 41.4743 124.656 41.4747Z" fill="#263238"/>
<path d="M110.931 65.0872L110.116 66.8474C109.845 67.453 109.579 68.0643 109.318 68.6755C108.797 69.898 108.305 71.1375 107.83 72.3714C107.354 73.6052 106.935 74.8503 106.534 76.0955C106.132 77.3406 105.82 78.5801 105.56 79.8139V79.9215V79.8875C105.563 79.8574 105.563 79.8271 105.56 79.797C105.553 79.7343 105.535 79.6732 105.509 79.6158C105.464 79.5083 105.413 79.4857 105.436 79.5479C105.642 79.8375 105.908 80.0789 106.217 80.2554C107.232 80.8749 108.314 81.378 109.443 81.7552C111.969 82.6229 114.542 83.3448 117.151 83.9173L116.891 87.0584C113.971 87.1523 111.05 86.9245 108.181 86.3793C106.605 86.094 105.073 85.6031 103.624 84.919C102.684 84.4714 101.839 83.8469 101.134 83.0796C100.653 82.5315 100.291 81.8898 100.07 81.1949C99.9501 80.8013 99.8779 80.3946 99.8551 79.9837C99.8437 79.7801 99.8437 79.5761 99.8551 79.3725L99.8834 79.0782V78.9254C100.26 75.9786 100.933 73.0774 101.893 70.2659C102.353 68.8849 102.86 67.5247 103.415 66.1852C103.698 65.5174 103.981 64.8552 104.292 64.193C104.604 63.5308 104.904 62.8969 105.271 62.1895L110.931 65.0872Z" fill="#7F3E3B"/>
<path d="M106.5 59.0483C102.538 59.6143 98.4797 74.1655 98.4797 74.1655L108.028 77.7991C108.028 77.7991 110.427 71.5451 112.069 66.689C113.789 61.6009 110.733 58.4257 106.5 59.0483Z" fill="#407BFF"/>
<path d="M106.5 59.0483C102.538 59.6143 98.4797 74.1655 98.4797 74.1655L108.028 77.7991C108.028 77.7991 110.427 71.5451 112.069 66.689C113.789 61.6009 110.733 58.4257 106.5 59.0483Z" fill="#009AF2"/>
<path d="M112.522 202.263H116.721L117.264 192.545H113.071L112.522 202.263Z" fill="#7F3E3B"/>
<path opacity="0.2" d="M113.065 192.545H117.265L116.982 197.554H112.782L113.065 192.545Z" fill="black"/>
<path d="M116.942 201.776H112.227C112.188 201.774 112.149 201.779 112.112 201.792C112.075 201.805 112.041 201.826 112.012 201.852C111.983 201.878 111.96 201.91 111.943 201.946C111.927 201.981 111.917 202.02 111.916 202.059L111.684 205.789C111.683 205.886 111.702 205.983 111.738 206.073C111.775 206.163 111.829 206.245 111.897 206.315C111.965 206.384 112.047 206.439 112.136 206.477C112.226 206.515 112.322 206.535 112.42 206.536C114.061 206.507 114.848 206.411 116.948 206.411C118.221 206.411 123.643 206.547 125.403 206.547C127.163 206.547 127.101 204.804 126.371 204.645C123.02 203.938 118.878 202.947 117.689 202.031C117.476 201.864 117.213 201.774 116.942 201.776Z" fill="#263238"/>
<path d="M118.425 202.501C118.705 202.527 118.986 202.449 119.211 202.28C119.277 202.211 119.323 202.126 119.343 202.033C119.364 201.94 119.36 201.844 119.33 201.753C119.32 201.693 119.294 201.636 119.256 201.589C119.217 201.541 119.167 201.504 119.11 201.482C118.595 201.278 117.412 202.087 117.276 202.184C117.261 202.195 117.25 202.209 117.243 202.226C117.236 202.243 117.234 202.262 117.236 202.28C117.241 202.297 117.251 202.313 117.263 202.326C117.276 202.339 117.292 202.348 117.31 202.353C117.675 202.441 118.049 202.491 118.425 202.501ZM118.911 201.635C118.954 201.626 118.999 201.626 119.042 201.635C119.069 201.646 119.094 201.665 119.113 201.689C119.131 201.713 119.144 201.741 119.149 201.77C119.169 201.831 119.173 201.895 119.161 201.957C119.15 202.02 119.122 202.078 119.081 202.127C118.883 202.319 118.323 202.342 117.57 202.195C117.972 201.913 118.429 201.722 118.911 201.635Z" fill="#407BFF"/>
<path d="M117.332 202.353H117.378C117.796 202.104 118.419 201.221 118.323 200.774C118.305 200.693 118.261 200.62 118.198 200.567C118.134 200.514 118.055 200.483 117.972 200.48C117.897 200.47 117.821 200.478 117.75 200.501C117.678 200.525 117.613 200.564 117.559 200.616C117.14 201.023 117.231 202.229 117.236 202.28C117.238 202.295 117.243 202.31 117.252 202.323C117.261 202.336 117.273 202.347 117.287 202.353C117.302 202.359 117.318 202.359 117.332 202.353ZM117.898 200.655H117.944C118.091 200.655 118.119 200.746 118.136 200.803C118.204 201.12 117.757 201.787 117.412 202.082C117.354 201.617 117.449 201.146 117.683 200.74C117.713 200.712 117.747 200.69 117.785 200.676C117.823 200.661 117.863 200.654 117.904 200.655H117.898Z" fill="#009AF2"/>
<path d="M149.808 191.894L153.94 191.175L152.813 181.508L148.682 182.227L149.808 191.894Z" fill="#7F3E3B"/>
<path opacity="0.2" d="M148.682 182.233L152.819 181.514L153.396 186.495L149.259 187.214L148.682 182.233Z" fill="black"/>
<path d="M153.945 190.672L149.287 189.958C149.209 189.944 149.129 189.96 149.063 190.005C148.997 190.049 148.952 190.118 148.937 190.196L148.144 193.847C148.115 194.041 148.163 194.239 148.278 194.398C148.394 194.557 148.567 194.664 148.761 194.696C150.385 194.916 151.178 194.939 153.227 195.262C154.489 195.454 159.826 196.394 161.569 196.665C163.312 196.937 163.522 195.205 162.809 194.933C159.605 193.734 155.655 192.143 154.619 191.045C154.445 190.846 154.207 190.714 153.945 190.672Z" fill="#263238"/>
<path d="M131.521 95.531C131.521 95.531 144.539 125.964 147.171 137.702C150.063 150.555 154.964 184.995 154.964 184.995L147.391 186.314C147.391 186.314 140.418 154.143 136.4 141.743C132.036 128.29 114.61 95.531 114.61 95.531H131.521Z" fill="#263238"/>
<path opacity="0.3" d="M120.79 102.255L120.485 106.856C122.449 110.728 124.713 115.244 126.926 119.828C127.91 115.289 125.398 104.383 120.79 102.255Z" fill="black"/>
<path d="M124.011 95.531C124.011 95.531 123.937 127.594 123.258 139.609C122.511 152.763 118.781 196.348 118.781 196.348H111.095C111.095 196.348 111.327 153.827 110.863 140.803C110.36 126.654 109.058 95.5254 109.058 95.5254L124.011 95.531Z" fill="#263238"/>
<path d="M110.79 196.416H119.093L119.551 193.501L110.388 193.954L110.79 196.416Z" fill="#407BFF"/>
<path d="M110.79 196.416H119.093L119.551 193.501L110.388 193.954L110.79 196.416Z" fill="#0C344B"/>
<path d="M147.086 186.365L155.264 184.944L155.219 181.99L146.271 184.01L147.086 186.365Z" fill="#407BFF"/>
<path d="M147.086 186.365L155.264 184.944L155.219 181.99L146.271 184.01L147.086 186.365Z" fill="#0C344B"/>
<path d="M155.326 191.611C155.599 191.681 155.887 191.646 156.136 191.515C156.209 191.455 156.266 191.377 156.302 191.289C156.338 191.201 156.35 191.105 156.339 191.011C156.337 190.949 156.319 190.889 156.288 190.835C156.256 190.782 156.212 190.737 156.158 190.706C155.683 190.428 154.387 191.051 154.24 191.124C154.224 191.132 154.211 191.144 154.202 191.159C154.193 191.174 154.188 191.192 154.189 191.209C154.188 191.228 154.193 191.246 154.203 191.261C154.213 191.276 154.228 191.288 154.245 191.294C154.592 191.44 154.955 191.547 155.326 191.611ZM155.938 190.83C155.982 190.833 156.024 190.846 156.062 190.87C156.09 190.883 156.113 190.905 156.129 190.933C156.144 190.96 156.15 190.991 156.147 191.022C156.159 191.085 156.154 191.148 156.133 191.208C156.112 191.268 156.076 191.321 156.028 191.362C155.802 191.526 155.247 191.464 154.523 191.198C154.962 190.974 155.445 190.848 155.938 190.83Z" fill="#407BFF"/>
<path d="M154.268 191.3C154.284 191.305 154.302 191.305 154.319 191.3C154.766 191.119 155.519 190.349 155.49 189.885C155.486 189.801 155.453 189.722 155.397 189.659C155.342 189.597 155.267 189.555 155.185 189.54C155.113 189.519 155.038 189.515 154.964 189.527C154.891 189.54 154.821 189.57 154.76 189.613C154.279 189.953 154.194 191.158 154.194 191.209C154.192 191.225 154.195 191.241 154.202 191.255C154.209 191.269 154.22 191.281 154.234 191.288C154.244 191.296 154.256 191.3 154.268 191.3ZM155.089 189.704H155.134C155.275 189.743 155.298 189.817 155.304 189.879C155.304 190.202 154.783 190.79 154.392 191.011C154.408 190.543 154.575 190.092 154.868 189.726C154.932 189.693 155.007 189.685 155.077 189.704H155.089Z" fill="#407BFF"/>
<path d="M116.523 83.8832L119.964 82.938L120.44 87.2903C120.44 87.2903 117.044 88.3091 116.2 86.5263L116.523 83.8832Z" fill="#7F3E3B"/>
<path d="M123.088 83.5379L122.879 87.4601L120.44 87.2903L119.964 82.938L123.088 83.5379Z" fill="#7F3E3B"/>
<path d="M180.478 186.314C162.401 183.591 148.671 149.802 148.671 110.671C148.671 71.5393 162.401 37.7506 180.478 35.0282L197.327 32.4927V188.849L180.478 186.314Z" fill="#407BFF"/>
<path d="M180.478 186.314C162.401 183.591 148.671 149.802 148.671 110.671C148.671 71.5393 162.401 37.7506 180.478 35.0282L197.327 32.4927V188.849L180.478 186.314Z" fill="#0C344B"/>
<path d="M197.327 188.849C213.635 188.849 226.854 153.848 226.854 110.671C226.854 67.4943 213.635 32.4927 197.327 32.4927C181.02 32.4927 167.801 67.4943 167.801 110.671C167.801 153.848 181.02 188.849 197.327 188.849Z" fill="#4787AB"/>
<path opacity="0.2" d="M202.795 71.8789C193.739 71.8789 186.444 89.2487 186.444 110.677C186.444 132.104 193.762 149.469 202.795 149.469C211.828 149.469 219.146 132.104 219.146 110.677C219.146 89.2487 211.828 71.8789 202.795 71.8789ZM215.812 110.677C215.812 116.84 214.816 122.443 213.186 126.648L208.466 110.365L213.096 94.4217C214.793 98.6496 215.835 104.366 215.835 110.671L215.812 110.677ZM205.857 87.0697C207.855 87.0697 209.705 88.462 211.262 90.8561L207.034 105.521L202.155 88.7676C203.124 87.7323 204.462 87.1202 205.879 87.064L205.857 87.0697ZM195.912 110.677C195.912 102.696 197.582 95.6499 200.135 91.3768L205.659 110.365L200.055 129.79C197.559 125.511 195.935 118.544 195.935 110.671L195.912 110.677ZM205.857 134.283C205.132 134.244 204.422 134.06 203.769 133.743C203.116 133.427 202.533 132.983 202.053 132.438L207.057 115.193L211.42 130.271C209.835 132.812 207.934 134.278 205.879 134.278L205.857 134.283Z" fill="#FAFAFA"/>
<path opacity="0.4" d="M198.125 186.868C184.825 186.868 170.585 156.249 170.585 110.671C170.585 65.0929 184.825 34.4736 198.125 34.4736C211.426 34.4736 225.672 65.0929 225.672 110.671C225.672 156.249 211.432 186.868 198.125 186.868ZM198.125 35.0396C185.108 35.0396 171.151 65.4268 171.151 110.671C171.151 155.915 185.074 186.302 198.125 186.302C211.177 186.302 225.106 155.909 225.106 110.671C225.106 65.4325 211.154 35.0396 198.125 35.0396Z" fill="#FAFAFA"/>
</svg>
